<svg width="963" height="1000" viewBox="0 0 963 1000" fill="none" xmlns="http://www.w3.org/2000/svg">
<path fill-rule="evenodd" clip-rule="evenodd" d="M592.17 647.46C590.022 646.957 587.826 646.688 585.62 646.66C578.05 646.21 570.33 649.82 562.91 651.44C559.66 652.24 556.22 653.19 552.74 653.89C549.65 654.31 546.46 654.62 543.25 654.82C540.66 654.9 537.64 654.7 536.76 657.42C531.92 658.536 526.913 658.732 522 658C522.554 656.414 522.64 654.703 522.25 653.07C522.49 652.66 522.82 652.12 523 651.75H522.4C513.68 648.27 504.25 645.88 495.48 642.27C484.03 638.15 467.18 630.2 453.95 624.76C454.868 619.911 455.154 614.963 454.8 610.04L455.33 609.61C455.483 608.567 455.8 607.554 456.27 606.61C456.9 604.96 456.91 602.7 457.16 600.83C457.67 597.18 458.02 591.68 457.08 587.34C456.67 581.46 452.7 576.92 448.41 573.34C443.16 568.14 437.89 563.08 432.76 557.69C404.35 528.77 402.1 492.35 357.63 481.29V481.11C357.28 480.72 357.14 480.41 356.74 481.03C355.27 480.47 353.44 480.52 352.21 479.57C350.084 477.655 348.454 475.253 347.46 472.57C346.68 467.42 347.24 459.48 342.72 456.19C337.72 453.19 311.04 451.05 308.72 457.61C307.356 459.004 306.473 460.798 306.2 462.73C304.71 465.54 303.78 468.65 302.28 471.5C299.1 477.89 297.04 476.5 291.42 477.93C290.81 476.57 288.96 476.85 287.61 477.04C271.27 479.34 251.36 485.59 244.37 500.92L244.96 500.84C232.89 523.49 240.72 552.29 242.88 576.29C244.505 597.31 242.818 618.454 237.88 638.95C232.05 660.06 231.72 683.67 243.28 702.77C244.45 704.96 245.88 708.05 248.41 706.68C249.944 707.793 251.675 708.607 253.51 709.08C254.086 709.608 254.698 710.095 255.34 710.54C255.71 710.377 256.07 710.193 256.42 709.99C258.31 712.68 362.07 721.68 372.84 723.08C382.33 724.22 394.84 727.14 402.59 720.3C408.98 718.48 415.67 713.74 420.77 709.03C423.87 753.89 425.59 845.76 428.35 846.4C429.56 846.81 431.19 847.3 432.56 847.7C432.56 850.92 432.81 854.58 432.56 857.75C432.13 861.33 431.06 865.55 430.56 869.31C428.47 869.18 427.85 871.31 427.61 872.69C425.81 884.45 425.86 893.92 425.99 906.84C447.22 919.32 472.1 926.19 495.99 934.26C498.28 935.97 503.24 934.12 505.88 933.65C515.05 931.85 525.48 926.52 523.16 916.74C521.47 909.38 514.35 905.14 508.36 900.81C501.8 896.07 494.89 891.33 488.86 885.68C484.348 881.623 480.175 877.205 476.38 872.47C474.6 870.09 472.69 866.16 470.28 864.4C472.82 861.4 467.69 864.22 465.74 864.4C464.61 859.092 463.188 853.851 461.48 848.7L463.13 848.78C468.56 843.72 471.59 819.46 471.97 812.26C474.69 765.33 474.62 711.26 463.72 671.72C472 676.81 481.08 681.06 489.32 686.1C494.51 689.1 499.78 693.35 505.6 694.82C505.668 695.08 505.81 695.316 506.007 695.499C506.205 695.681 506.451 695.803 506.716 695.851C506.981 695.898 507.254 695.869 507.503 695.766C507.752 695.663 507.966 695.491 508.12 695.27C509.12 695.4 510.51 694.97 510.62 694.49C511.69 692.32 513.23 689.97 513.04 687.61L511.62 684.3C514.82 685.6 518.3 688.3 521.72 688.58C528.62 711.58 542.23 698.71 555.32 689.75C563.22 684.24 571.87 678.15 580.18 672.27C587.24 666.67 601.01 661.35 594.26 650.27" fill="white"/>
<path fill-rule="evenodd" clip-rule="evenodd" d="M295.39 476.5C302.06 474.89 303.2 458.92 307.23 461.19C309.55 463.19 305.75 467.03 305.07 469.31L304.78 469.89C303.41 472.55 301.87 475.2 299.17 476.73C297.44 478.55 292.27 476.73 293.03 479.66C295.69 488.39 309.78 494.44 318.09 497.16C331.01 502 351.9 500.37 354.93 484.16C347.85 482.86 342.61 470.1 346.98 464.79C347.12 469.95 348.54 475.28 352.59 478.79L352.82 479C353.53 479.65 354.46 480.43 355.38 480.28C356.28 479.03 358.02 479.74 358.53 481.06C398.86 488.06 407.85 531.46 433.25 557.06C438.32 562.39 443.62 567.5 448.86 572.67C454.21 576.9 457.99 582.81 458.25 589.74C458.655 593.596 458.564 597.487 457.98 601.32V601.67C457.74 604.07 457.6 606.67 456.46 608.76C456.26 609.48 456.34 610.39 455.72 610.9C455.983 615.344 455.735 619.803 454.98 624.19L456.93 625.06C478.34 634.58 500 643.56 522.33 650.69C524.23 650.35 524.08 652.56 523.16 653.57C523.425 654.752 523.425 655.978 523.16 657.16C527.261 657.614 531.409 657.395 535.44 656.51C536.71 653.71 540.11 653.86 542.73 653.78C545.99 653.57 549.24 653.26 552.47 652.78C560.47 651.01 568.27 648.67 576.16 646.61C581.494 645.19 587.106 645.19 592.44 646.61C593.343 647.613 594.157 648.694 594.87 649.84C599.72 657.34 594.94 664.21 588.18 668.15C577.34 675.83 566.477 683.497 555.59 691.15L554.8 691.72C541.8 700.98 527.25 712.72 520.33 690.16C518 689.89 515.96 688.33 513.79 687.41C514.38 690.11 512.63 692.85 511.43 695.17C511.137 695.758 510.67 696.241 510.091 696.553C509.513 696.864 508.852 696.989 508.2 696.91C507.909 697.153 507.57 697.332 507.204 697.433C506.839 697.533 506.456 697.555 506.081 697.495C505.707 697.435 505.35 697.296 505.034 697.086C504.718 696.877 504.451 696.602 504.25 696.28C498.33 694.58 493.43 690.63 488.19 687.56C480.73 683.03 472.9 679.18 465.34 674.84C477.91 726.84 474.83 780.93 471.49 833.84V834.31C471.08 842.04 469.31 845.69 462.89 850.42C464.029 853.811 464.991 857.259 465.77 860.75C466.04 861.56 467.28 860.75 467.29 861.91C469.57 861.38 474.2 861.91 472.58 865.09C477.16 868.93 480.26 874.09 484.27 878.49C491.33 886.95 500.56 893.24 509.62 899.44C530.43 910.03 531.62 928.38 507.27 934.65H507.03C503.67 935.46 499.64 937.3 496.38 935.75C491.52 934.82 486.7 932.92 481.94 931.48C462.83 925.184 444.113 917.751 425.89 909.22C425.583 909.051 425.327 908.802 425.151 908.499C424.975 908.196 424.885 907.85 424.89 907.5C425.09 901.65 423.5 869.63 429.57 868.94C430.811 862.35 431.254 855.635 430.89 848.94C428.923 848.291 426.919 847.757 424.89 847.34C422.89 846.72 419.82 846.58 418.49 844.98C418.232 844.895 418.014 844.719 417.876 844.486C417.738 844.252 417.69 843.977 417.74 843.71C418.813 833.67 419.637 823.61 420.21 813.53C422.21 779.74 421.55 745.85 419.21 712.09C414.501 716.365 408.978 719.644 402.97 721.73C399.63 725.07 394.28 725.79 389.72 726.19C383.86 726.55 378.11 725.39 372.32 724.66C362.5 723.42 352.75 724.52 343.01 725.73L339.68 726.14C315.81 728.76 290.02 729.3 267.78 719.14C263.59 719.51 258.4 714.99 255.78 711.97C254.63 712.68 253.5 711.3 252.58 710.56C250.943 710.105 249.386 709.403 247.96 708.48C244.47 709.62 242.59 705.09 241.26 702.63C220.2 666.63 243.65 630.78 241.89 592.63C242.96 562.7 229.28 531.51 242.5 502.81C245.17 490.66 260.81 482.26 272.58 479.17C276.37 478.55 290.73 473.36 292.31 477.72C293 476.58 294.25 476.51 295.39 476.5ZM470.06 866.33C468.06 866.54 466.16 866.66 464.21 867.02C457.096 868.249 450.298 870.88 444.21 874.76C442.21 875.99 440.46 877.55 438.21 878.23C433.54 879.93 428.94 875.72 429.29 871.17C427.98 882.6 428.21 894.36 428.88 905.85C447.16 914.103 465.827 921.437 484.88 927.85C489.16 929.64 494.23 930.21 498.17 932.64C504.979 932.144 511.549 929.921 517.26 926.18C526.61 919.71 520.41 909.44 512.66 904.92C495.54 897.24 481 881.69 470.06 866.33ZM432.69 849.43C432.33 852.81 434.91 858.09 434.54 864.84C434.26 866.95 433.6 869.16 433.83 871.28C434.88 879.13 443.4 869.15 446.92 868.06C451.917 865.335 457.319 863.43 462.92 862.42C462.92 860.61 461.68 859.89 461.52 858.1C461.3 855.47 461.31 852.93 461.19 850.27C453.93 853.57 440.38 851.24 432.69 849.43V849.43ZM471.78 865.81C471.654 865.897 471.52 865.971 471.38 866.03C472.305 867.319 473.335 868.53 474.46 869.65L473.95 868.87C473.29 867.807 472.565 866.785 471.78 865.81V865.81ZM246.44 584.91C246.092 586.398 245.408 587.787 244.44 588.97C249.59 630.67 223.09 665.43 247.44 704.2C247.748 704.347 248.037 704.532 248.3 704.75L248.72 704.45C260.14 684.28 276.4 666.87 289.35 647.56C291.84 642.72 295.93 637.84 297.5 632.24C271.46 622 261.06 607 246.44 584.91ZM589 648.16C587.839 648.37 586.65 648.37 585.49 648.16C581.31 648.08 577.22 649.16 573.22 650.27C561.633 653.548 549.876 656.189 538 658.18C537.76 658.425 537.533 658.682 537.32 658.95C537.43 659.137 537.484 659.352 537.473 659.569C537.462 659.786 537.388 659.995 537.26 660.17C535.46 663.6 536.91 667.79 535.6 671.46C533.71 678.9 528.68 687.28 521.17 689.91C523.67 692.3 525.47 695.37 528.05 697.67C534.39 702.01 541.38 695.54 546.55 692.07C556.41 685.11 566.297 678.197 576.21 671.33C580.65 667.66 590.47 663.03 592.59 658.16C593.93 654.43 591.45 650.79 589 648.16ZM521.06 657.63C516.81 666.27 514.36 675.46 511.91 684.74C514.46 685.44 516.81 686.53 519.32 687.27C522.84 688.06 527.83 681.27 529.6 678.55C531.434 675.536 532.685 672.205 533.29 668.73C533.79 665.32 533.29 661.73 534.74 658.63C530.13 659.09 525.47 659.19 521.05 657.63H521.06ZM268.78 639.8C272.78 638.69 263.7 647.69 263.17 648.65C257.28 655.65 251.88 662.94 246.52 670.3L244.9 672.53C244.74 672.76 243.66 674.35 244.44 674.15C244.455 674.143 244.471 674.143 244.486 674.148C244.501 674.154 244.513 674.165 244.52 674.18C244.527 674.195 244.527 674.211 244.522 674.226C244.516 674.241 244.505 674.253 244.49 674.26C239.53 675.14 266.39 640.41 268.78 639.8ZM365.92 635.55C366.24 634.55 364.71 634.17 364.39 635.13L363.39 638.19C359.55 649.73 355.74 661.29 351.16 672.56C350.78 673.5 352.31 673.92 352.69 672.98C357.66 660.71 361.74 648.11 365.92 635.55V635.55ZM410.48 631.55C409.08 638.17 405.55 644.14 403.41 650.47C407.41 649.59 410.53 645.85 412.87 642.63L412.94 642.52C414.05 640.82 415.33 638.17 417.84 639.37C421.65 641.58 418.92 649.37 418.84 653.13C418.36 658.23 416.7 662.99 415.57 667.94C418.48 665.94 419.31 662.05 420.73 659L426.18 645.95C430.18 640.47 428.32 656.88 428.12 658.43C427.79 661.83 426.35 665.26 426.92 668.68C429.076 666.159 430.732 663.251 431.8 660.11C433.45 655.8 434.97 651.44 436.55 647.11C436.65 646.823 436.855 646.584 437.124 646.443C437.393 646.301 437.706 646.267 437.999 646.347C438.292 646.427 438.544 646.615 438.704 646.874C438.864 647.132 438.92 647.442 438.86 647.74C438.76 652.66 438.673 657.577 438.6 662.49L438.54 666.18C438.54 666.88 438.18 668.92 439.39 668.36C445.75 661.7 447.39 648.36 446.55 639.44C434.07 639.7 421.33 638.09 410.48 631.51V631.55ZM521.61 656.39C521.55 656.55 521.5 656.72 521.44 656.88H521.55L521.61 656.39ZM244.45 656.39C243.07 655.39 266.35 625.52 264.84 634.14C258.35 641.77 250.77 648.5 244.45 656.35V656.39ZM450.07 590.39C428.29 585.28 409.12 604.39 387.25 601.48C387.51 608.32 387.86 615.2 387.72 622.03C416.72 624.42 413.45 636.76 446.88 635.52C451.2 632.63 452.98 614.93 452.61 609.58C452.89 603.26 447.44 600.43 442.02 599.32C440.02 600.5 436.54 596.97 439.45 595.73C443.273 594.581 446.867 592.774 450.07 590.39V590.39ZM289.44 478.39C281.641 479.177 274.026 481.245 266.9 484.51C240.58 492.1 236.79 522.86 239.95 546.17C241.26 563.9 246.33 581.24 256.95 595.66C285.29 638.81 332.23 631.98 376.68 626.27C378.29 625.16 381 625.95 382.55 624.48C382.397 624.424 382.252 624.346 382.12 624.25C382.921 623.569 383.447 622.62 383.6 621.58H383.92C384.24 614.89 383.99 608.33 384.09 601.69C369.48 597.69 353.81 595.64 339.01 591.69C337.32 592.86 335.38 591.51 333.74 590.87C329.48 589.057 325.183 587.337 320.85 585.71L319.76 585.3C316.94 584.24 314.12 583.16 311.32 582.03L310.32 581.6C308.71 580.95 304.67 578.53 302.92 580.04L303.06 580.34C304.06 582.6 307.67 590.95 303.28 589.34C299.71 586.84 297.87 569.42 294.34 569.26C293.06 572.47 292.271 575.855 292 579.3C291.93 580.08 290.91 580.74 290.29 580.01C286.1 574.51 292.43 568.51 292.6 562.7C292.99 555.94 290 549.62 288.51 543.15L288.42 542.71C287.54 538.51 286.18 533.42 286.54 529.66L287.41 532.93C288.28 536.19 289.18 539.46 290.2 542.69C292.74 550.69 297.33 559.03 294.78 567.64C299.9 567.81 300.78 575.87 302.68 579.56C305.79 575.56 327.68 585.19 332.68 586.74L333.68 585.65C349.29 567.94 360.57 556 384.81 570C380.62 556.51 380.22 542.19 379.5 528.18C379.75 525.52 378.21 518.49 380.38 517.04C380.757 517.091 381.125 517.199 381.47 517.36V518.74C381.47 521.41 381.61 525.84 382.73 526.85L383.24 532.15C384.59 545.91 386.12 559.67 390.24 572.94C400.044 578.58 409.222 585.244 417.62 592.82L418.62 592.47C429.1 588.63 441.71 583.72 452.43 588.47C452.185 585.765 451.264 583.165 449.75 580.91C447.32 580.3 445.75 577.75 444 576.04C438.49 570.14 432.83 564.36 427.45 558.33C404.45 533.66 394.72 493.15 358.66 483.58C356.27 503.52 330.73 506.7 315.34 499.87L314.76 499.65C305.19 495.96 294.38 490.4 291.02 480.26L290.88 479.97C290.51 479.25 290.09 478.52 289.44 478.39V478.39ZM295.11 591.83C295.11 591.83 295.2 591.83 295.17 591.83C290.69 597.45 287.04 605.11 291.5 611.83C291.667 612.143 291.719 612.505 291.644 612.851C291.57 613.198 291.376 613.507 291.095 613.724C290.815 613.941 290.466 614.052 290.112 614.037C289.758 614.021 289.421 613.881 289.16 613.64C283 606.67 289.84 597.16 295.11 591.83V591.83ZM451.11 593.1C448.651 594.857 445.997 596.324 443.2 597.47C443.185 597.797 443.085 598.114 442.91 598.39C446.6 598.69 450.44 599.64 453.02 602.32C453.15 601.32 453.27 600.32 453.37 599.32C453.61 596.84 453.17 594.57 451.11 593.1V593.1ZM281.57 568.26V568.13C281.57 567.97 281.83 567.96 281.82 568.13C281.73 570.13 280.27 571.57 279.03 573L273.51 579.36C270.44 583.06 265.9 586.77 266.92 592.13C266.912 592.518 266.778 592.893 266.54 593.2C266.301 593.506 265.969 593.726 265.595 593.829C265.22 593.931 264.823 593.91 264.461 593.767C264.1 593.625 263.794 593.37 263.59 593.04C259.74 585.7 271.86 579.46 275.95 574.73C277.86 572.68 280.89 571.17 281.55 568.26H281.57ZM339.29 590.26C339.348 590.348 339.389 590.446 339.41 590.55L341.34 590.77L339.34 590.26H339.29ZM242.86 573.1C242.97 573.87 243.08 574.63 243.18 575.4L243.28 576.17V576.11C243.328 575.916 243.424 575.737 243.56 575.59V575.59C243.36 574.77 243.1 574 242.86 573.13V573.1ZM419.86 565.17C421.41 565 414.41 570.03 414.02 570.65C413.967 570.691 413.906 570.721 413.841 570.738C413.777 570.755 413.709 570.759 413.643 570.751C413.576 570.742 413.512 570.72 413.454 570.686C413.396 570.653 413.346 570.608 413.305 570.555C413.264 570.502 413.234 570.441 413.217 570.376C413.2 570.312 413.196 570.244 413.204 570.178C413.213 570.111 413.235 570.047 413.269 569.989C413.302 569.931 413.347 569.881 413.4 569.84C415.57 568.34 417.72 566.77 419.86 565.2V565.17ZM406.24 550.38C407.32 549.94 408.05 551.73 407.03 552.23C403.31 554.04 399.39 555.32 395.96 557.71C395.81 557.82 395.63 557.57 395.77 557.46L396.18 557.13C399.33 554.66 402.48 552 406.24 550.41V550.38ZM244.14 527.78C245.14 532.66 250.79 534.26 255.14 535.56L256.5 536.08C260.35 537.55 264.34 539.21 267.11 542.31C268.19 545.82 260.45 539.71 259.37 539.4C254.09 536.16 244.53 535.6 244.14 527.81V527.78ZM358.78 482.2C358.78 482.44 358.83 482.7 358.84 482.95H359.84C359.459 482.754 359.103 482.512 358.78 482.23V482.2Z" fill="#060606"/>
<path fill-rule="evenodd" clip-rule="evenodd" d="M340.7 474.11C335.747 474.258 330.876 472.817 326.8 470C322.29 468.39 316.86 465.92 313.56 463.32C312.27 463.65 310.73 462.32 309.75 461.57C303.62 457 298.81 450.31 297.39 443.62C295.19 446.39 292.06 446.5 289.06 445.13C282.78 441.57 283.01 434.07 285.28 428.48C280.52 417.82 277.22 389.69 284.48 378.34C285.97 376.64 288.15 375.62 289.72 373.88C291.027 372.315 292.484 370.882 294.07 369.6C299.02 365.83 307.56 363.82 312.9 362.88C335.22 358.06 352.36 366.72 372.57 374.03C371.387 376.885 369.837 379.575 367.96 382.03C372.96 383.9 370.67 388.1 366.78 390.24L364.46 389.11C368.07 402.02 376.39 434.11 372.8 444.42C369.94 460.5 357.38 474.25 340.7 474.13" fill="white"/>
<path fill-rule="evenodd" clip-rule="evenodd" d="M343.93 475.5C336.7 476.24 328.11 474.5 323.3 468.67C323.169 468.508 323.092 468.308 323.08 468.1C323.079 467.89 323.15 467.685 323.28 467.52C323.407 467.352 323.593 467.238 323.8 467.2C324.005 467.17 324.215 467.205 324.4 467.3L324.84 467.55C328.076 469.448 331.604 470.8 335.28 471.55C340.558 472.51 345.999 471.973 350.987 469.999C355.974 468.025 360.309 464.692 363.5 460.38C368.115 454.279 370.915 447.001 371.58 439.38C372.43 430.28 370.45 421.23 368.4 412.38C366.25 403.11 363.89 393.9 361.15 384.78C361.076 384.534 361.049 384.276 361.07 384.02C360.25 383.735 359.355 383.756 358.55 384.08C356.948 384.746 355.457 385.653 354.13 386.77C353.66 387.13 353.23 387.46 352.83 387.77C351.269 388.91 349.426 389.601 347.5 389.77C345.456 389.801 343.432 389.356 341.59 388.47C340.64 388.07 339.72 387.65 338.79 387.23C336.185 385.97 333.483 384.924 330.71 384.1C326.895 383.075 322.959 382.574 319.01 382.61C312.01 382.67 304.9 384.49 300.58 390.44C298.84 392.85 297.69 395.62 298.58 398.59C299.12 400.196 299.932 401.698 300.98 403.03L301.32 403.49C301.874 404.148 302.271 404.925 302.48 405.76C302.557 406.146 302.555 406.544 302.472 406.93C302.39 407.315 302.229 407.679 302 408C301.704 408.461 301.369 408.895 301 409.3C300.72 409.602 300.456 409.92 300.21 410.25C299.736 410.924 299.33 411.645 299 412.4C298.379 413.881 298.04 415.465 298 417.07C297.995 418.987 298.155 420.901 298.48 422.79C298.67 424.13 298.86 425.47 298.94 426.79C298.954 426.987 298.898 427.182 298.78 427.34C298.65 427.5 298.464 427.604 298.26 427.63H298.07C298.07 427.76 298.13 427.89 298.15 428.03C298.02 427.86 297.88 427.7 297.74 427.54C297.585 427.456 297.459 427.327 297.38 427.17C297.17 426.98 296.95 426.8 296.72 426.62C295.568 425.737 294.17 425.234 292.72 425.18C291.327 425.146 289.975 425.655 288.95 426.6C286.87 428.54 286.26 431.7 286.24 434.41C286.22 437.12 286.86 440.51 289.24 442.23C290.219 442.931 291.386 443.321 292.59 443.35C293.578 443.296 294.55 443.07 295.46 442.68L296.32 442.38C296.603 442.281 296.911 442.274 297.198 442.36C297.485 442.446 297.738 442.621 297.92 442.86C298.106 443.107 298.223 443.4 298.26 443.707C298.297 444.014 298.252 444.326 298.13 444.61L298.03 444.82L298.56 445.7C300.497 449.091 302.787 452.269 305.39 455.18C306.925 456.838 308.598 458.363 310.39 459.74L310.66 459.94L311.17 460.34C311.648 460.836 312.259 461.183 312.93 461.34C313.086 461.351 313.243 461.351 313.4 461.34C313.696 461.275 314.003 461.292 314.29 461.39C314.57 461.515 314.807 461.719 314.974 461.976C315.141 462.233 315.23 462.533 315.23 462.84C315.234 463.139 315.154 463.434 315 463.69C314.754 464.132 314.372 464.483 313.91 464.69C313.449 464.884 312.938 464.929 312.45 464.82C311.122 464.414 309.896 463.733 308.85 462.82L308.68 462.68C306.67 461.177 304.815 459.479 303.14 457.61C300.175 454.413 297.904 450.637 296.47 446.52C295.491 447.119 294.368 447.44 293.22 447.45C291.528 447.495 289.849 447.153 288.31 446.45C286.907 445.743 285.676 444.737 284.704 443.504C283.731 442.27 283.04 440.839 282.68 439.31C281.753 435.723 281.956 431.938 283.26 428.47L283.38 428.19C279.54 418.49 278.38 407.73 278.69 397.38C278.742 392.454 279.288 387.547 280.32 382.73C280.796 380.602 281.765 378.615 283.15 376.93C283.985 376.016 284.925 375.204 285.95 374.51C286.84 373.9 287.667 373.203 288.42 372.43L288.77 372.05L288.99 371.81C290.191 370.387 291.531 369.087 292.99 367.93C294.775 366.626 296.713 365.545 298.76 364.71C303.209 362.945 307.836 361.664 312.56 360.89C322.646 358.877 333.051 359.102 343.04 361.55C347.69 362.77 352.2 364.43 356.7 366.09L357.95 366.55L368.45 370.39L373.33 372.18C373.701 372.325 374.014 372.588 374.22 372.93C374.321 373.099 374.381 373.289 374.397 373.484C374.412 373.68 374.383 373.877 374.31 374.06C373.329 376.565 372.06 378.948 370.53 381.16C371.068 381.528 371.518 382.009 371.85 382.57C372.301 383.308 372.547 384.155 372.56 385.02C372.62 388.02 369.89 390.02 367.63 391.51C367.44 391.639 367.225 391.727 367 391.77C369.2 400.14 371.3 408.55 373.08 417.02L373.21 417.61C375.04 426.48 376.21 435.53 374.49 444.51C373.071 452.352 369.462 459.633 364.08 465.51C358.778 471.148 351.627 474.693 343.93 475.5V475.5ZM296.34 424.5C295.332 421.51 294.961 418.342 295.25 415.2C295.474 413.291 296.065 411.444 296.99 409.76C297.537 408.8 298.176 407.895 298.9 407.06L299.14 406.78C299.271 406.659 299.371 406.508 299.43 406.34C299.448 406.226 299.427 406.11 299.37 406.01C299.208 405.714 299.006 405.441 298.77 405.2C298.63 405.03 298.49 404.87 298.37 404.71C296.3 401.9 294.75 398.56 295.25 395.01C295.75 391.46 298.02 388.31 300.44 385.87C305.78 380.51 314.05 379.27 321.3 379.57C325.531 379.738 329.719 380.482 333.75 381.78C335.731 382.424 337.668 383.196 339.55 384.09L339.97 384.29L340.64 384.62C342.086 385.396 343.611 386.013 345.19 386.46C348.31 387.23 350.42 385.62 352.65 383.99C353.41 383.43 354.18 382.87 355 382.37L355.17 382.27C356.685 381.372 358.409 380.886 360.17 380.86C361.683 380.855 363.14 381.431 364.24 382.47C364.454 382.666 364.607 382.919 364.68 383.2C364.817 383.397 364.919 383.617 364.98 383.85C365.4 385.41 365.81 386.98 366.23 388.54L366.56 388.32C367.64 387.755 368.538 386.895 369.15 385.84C369.337 385.307 369.309 384.722 369.07 384.21C368.996 384.037 368.875 383.887 368.72 383.78C368.606 383.7 368.468 383.665 368.33 383.68C367.991 383.728 367.645 383.683 367.33 383.55C367.005 383.416 366.73 383.185 366.54 382.89C366.353 382.593 366.278 382.238 366.33 381.89C366.371 381.547 366.518 381.226 366.75 380.97C368.465 379.019 369.893 376.834 370.99 374.48L363.76 371.81L356 369L354.59 368.48C349.929 366.672 345.156 365.169 340.3 363.98C330.6 361.78 320.48 362.29 310.81 364.36L310.23 364.49C306.121 365.263 302.124 366.543 298.33 368.3C296.486 369.187 294.781 370.34 293.27 371.72C292.61 372.34 292.02 373.02 291.42 373.72C290.609 374.692 289.716 375.592 288.75 376.41L287.83 377.15C286.399 378.147 285.237 379.484 284.45 381.04C283.699 382.862 283.191 384.775 282.94 386.73C282.165 391.591 281.804 396.508 281.86 401.43C282.055 409.633 283.023 417.799 284.75 425.82C285.343 424.886 286.127 424.088 287.051 423.48C287.975 422.871 289.018 422.466 290.11 422.29C291.573 422.104 293.058 422.365 294.37 423.04C295.12 423.422 295.797 423.933 296.37 424.55L296.34 424.5ZM293.93 434.3C292.281 433.64 290.481 433.45 288.73 433.75C288.553 433.78 288.372 433.745 288.22 433.65C288.065 433.568 287.945 433.433 287.88 433.27C287.81 433.1 287.81 432.91 287.88 432.74C287.945 432.568 288.074 432.429 288.24 432.35C290.158 431.42 292.306 431.072 294.42 431.35H294.62C295.929 431.512 297.198 431.905 298.37 432.51C298.802 432.721 299.18 433.027 299.478 433.404C299.776 433.782 299.985 434.221 300.09 434.69C300.13 434.928 300.123 435.172 300.068 435.407C300.013 435.642 299.911 435.864 299.77 436.06C299.629 436.251 299.443 436.404 299.228 436.506C299.014 436.607 298.777 436.653 298.54 436.64C297.717 436.596 296.937 436.259 296.34 435.69L296.08 435.5C295.425 434.996 294.701 434.589 293.93 434.29V434.3Z" fill="#060606"/>
<path fill-rule="evenodd" clip-rule="evenodd" d="M331.91 439.81C336.21 439.29 340.37 440.6 344.58 441.26C346.792 441.621 349.022 441.858 351.26 441.97H352.62C352.637 441.751 352.715 441.54 352.846 441.363C352.977 441.187 353.155 441.05 353.36 440.97C354.249 440.527 355.237 440.317 356.23 440.36C357.236 440.4 358.238 440.507 359.23 440.68C361.046 440.967 362.737 441.785 364.09 443.03C367.09 446.03 366.64 450.77 364.32 454.03C359.52 460.71 350.75 461.03 343.24 460.93H342.55C335.72 460.84 325.94 461.85 322.83 454.09C322.268 452.659 322.015 451.126 322.088 449.59C322.16 448.055 322.556 446.552 323.25 445.18C324.88 441.94 328.39 440.23 331.91 439.81ZM353.26 450.93H353.2C350.053 451.05 346.9 451.14 343.74 451.2C343.84 452 343.93 452.81 344.04 453.62C344.13 454.25 344.22 454.89 344.32 455.52C344.412 455.846 344.462 456.182 344.47 456.52V456.63C344.641 456.708 344.787 456.833 344.89 456.99C344.928 457.046 344.958 457.106 344.98 457.17C347.516 457.242 350.053 457.084 352.56 456.7V456.64C352.582 456.376 352.708 456.131 352.91 455.96C353.041 454.931 353.118 453.897 353.14 452.86C353.17 452.18 353.22 451.56 353.26 450.93V450.93ZM341.34 451.24C339.06 451.24 336.79 451.31 334.52 451.24H333.52C333.74 452.41 333.97 453.57 334.17 454.75C334.211 455.006 334.194 455.267 334.12 455.515C334.046 455.763 333.918 455.992 333.744 456.184C333.571 456.376 333.356 456.526 333.116 456.624C332.877 456.722 332.618 456.765 332.36 456.75L332.68 456.8C335.636 457.105 338.61 457.206 341.58 457.1C341.476 456.184 341.44 455.261 341.47 454.34V454.22C341.39 453.22 341.35 452.23 341.34 451.24V451.24ZM325.91 451C325.982 451.605 326.136 452.197 326.37 452.76C327.37 455.09 329.56 456.18 331.91 456.64C331.686 456.562 331.49 456.42 331.346 456.232C331.202 456.043 331.116 455.817 331.1 455.58C330.902 454.135 330.808 452.678 330.82 451.22C329.18 451.22 327.53 451.19 325.91 451ZM361.81 450.51C360.594 450.681 359.367 450.748 358.14 450.71L354.92 450.84C354.97 451.57 355.02 452.3 355.08 453.03C355.108 453.997 355.192 454.962 355.33 455.92C357.518 455.235 359.45 453.912 360.88 452.12C361.252 451.629 361.565 451.095 361.81 450.53V450.51ZM331.42 443.62C330.445 443.789 329.517 444.162 328.695 444.713C327.873 445.264 327.176 445.982 326.65 446.82C326.066 447.905 325.789 449.129 325.85 450.36C327.49 450.17 329.16 450.09 330.85 450.03C330.85 449.73 330.85 449.44 330.85 449.14V448.37C330.829 446.775 331.021 445.184 331.42 443.64V443.62ZM341.47 443.8L340.62 443.7C338.26 443.356 335.873 443.225 333.49 443.31C333.15 443.31 332.8 443.37 332.49 443.42C332.794 445.001 332.981 446.602 333.05 448.21C333.12 448.79 333.2 449.36 333.3 449.93H333.71C336.26 449.79 338.81 449.7 341.36 449.6C341.36 449.12 341.36 448.6 341.36 448.17V447.69C341.323 446.399 341.36 445.107 341.47 443.82V443.8ZM353.4 443.6C350.917 443.961 348.409 444.124 345.9 444.09C344.9 444.09 343.95 444.03 342.97 443.95C343.03 444.47 343.07 444.95 343.11 445.5C343.21 446.5 343.32 447.57 343.44 448.6L343.55 449.5C346.68 449.36 349.82 449.2 352.95 449.04H353.4L353.52 447.31C353.6 446.15 353.7 445 353.83 443.85H353.73C353.609 443.79 353.498 443.713 353.4 443.62V443.6ZM354.48 444.03C354.62 445.67 354.69 447.31 354.79 448.94L356.86 448.83L357.86 448.78C359.2 448.7 360.92 448.29 362.25 448.67C362.329 448.07 362.247 447.459 362.013 446.901C361.78 446.342 361.403 445.856 360.92 445.49C359 444.09 356.61 444.6 354.48 444.05V444.03ZM347.42 429.43C350.5 427.67 358.22 425.87 358.71 431.43C358.93 433.97 357.04 436.08 354.83 437.02H354.74C352.67 437.87 348.99 438.83 347.19 437.02C345.7 435.49 347.68 432.73 349.54 434.02C350.49 434.67 352.54 434.19 353.54 433.88H353.6C354.75 433.54 356.28 432.46 355.81 431.05C355.39 429.8 353.6 429.57 352.48 429.53C350.806 429.587 349.136 429.741 347.48 429.99C347.408 429.998 347.336 429.977 347.28 429.932C347.224 429.887 347.188 429.822 347.18 429.75C347.172 429.678 347.193 429.607 347.238 429.55C347.283 429.494 347.348 429.458 347.42 429.45V429.43ZM360.17 420.53C364.34 420.34 366.94 424.89 365.98 428.62C365.886 428.967 365.68 429.273 365.394 429.492C365.109 429.711 364.759 429.829 364.4 429.83H364.22H363.96C363.616 429.732 363.312 429.525 363.096 429.24C362.879 428.956 362.762 428.608 362.76 428.25V428C362.86 426.24 362.67 424.21 360.57 423.78C358.79 423.42 357.8 425.13 357.77 426.7C357.769 426.765 357.751 426.829 357.719 426.886C357.686 426.942 357.639 426.99 357.583 427.023C357.527 427.056 357.463 427.074 357.397 427.075C357.332 427.077 357.267 427.061 357.21 427.03C356.642 426.628 356.232 426.041 356.05 425.369C355.868 424.698 355.924 423.984 356.21 423.35C356.515 422.541 357.055 421.843 357.761 421.344C358.467 420.845 359.306 420.568 360.17 420.55V420.53ZM329.17 421.53C330.649 421.099 332.231 421.192 333.65 421.791C335.068 422.39 336.237 423.46 336.96 424.82C337.238 424.857 337.494 424.994 337.678 425.206C337.862 425.417 337.962 425.689 337.96 425.97C337.935 426.748 337.63 427.49 337.1 428.06C336.869 428.285 336.584 428.447 336.273 428.531C335.962 428.616 335.634 428.62 335.321 428.543C335.008 428.466 334.72 428.31 334.484 428.091C334.247 427.872 334.07 427.596 333.97 427.29V427.24C333.861 426.835 333.671 426.457 333.413 426.127C333.155 425.798 332.832 425.523 332.466 425.321C332.099 425.118 331.695 424.992 331.278 424.949C330.861 424.905 330.44 424.947 330.04 425.07C328.1 425.75 328.16 427.79 326.8 428.98C326.73 429.049 326.639 429.093 326.542 429.106C326.444 429.119 326.345 429.099 326.26 429.05C324.81 428.36 325.07 426.26 325.59 425.05C325.913 424.249 326.398 423.523 327.013 422.917C327.629 422.312 328.363 421.839 329.17 421.53V421.53ZM325 412.31C327.47 409.8 333.89 407.38 335.57 412.01C335.696 412.479 335.633 412.979 335.393 413.402C335.154 413.825 334.757 414.137 334.29 414.27C332.78 414.57 331.45 413.91 329.95 414.03C328.704 414.108 327.507 414.542 326.5 415.28C323.82 417.35 323.23 420.87 321.36 423.51C321.343 423.539 321.317 423.562 321.286 423.574C321.255 423.587 321.221 423.589 321.189 423.58C321.156 423.57 321.128 423.551 321.108 423.524C321.089 423.496 321.079 423.463 321.08 423.43C320.926 421.406 321.195 419.372 321.87 417.458C322.545 415.543 323.611 413.79 325 412.31V412.31ZM357.12 409.84C358.787 409.3 360.582 409.3 362.25 409.84C363.92 410.362 365.421 411.318 366.6 412.61C367.138 413.19 367.61 413.827 368.01 414.51C368.22 414.87 368.44 415.62 368.68 416.06C369.003 416.217 369.286 416.448 369.504 416.734C369.723 417.02 369.872 417.353 369.939 417.707C370.006 418.06 369.989 418.425 369.89 418.771C369.792 419.117 369.613 419.435 369.37 419.7L369.31 419.75L369.16 419.91C368.851 420.217 368.466 420.438 368.045 420.548C367.623 420.659 367.18 420.656 366.76 420.54C364.87 419.99 364.64 418.54 363.98 416.93C363.538 415.878 362.823 414.963 361.91 414.28C360.724 413.483 359.382 412.949 357.972 412.714C356.563 412.48 355.12 412.55 353.74 412.92C353.61 412.92 353.45 412.79 353.54 412.66C353.946 412.041 354.438 411.482 355 411C355.648 410.497 356.374 410.105 357.15 409.84H357.12Z" fill="#060606"/>
<path d="M231.32 640.75L780.41 640.75V610.39L231.32 610.39V640.75Z" fill="white" stroke="#060606" stroke-width="4" stroke-miterlimit="10"/>
<path d="M231.32 640.75H607.18V611.1H231.32V640.75Z" fill="white" stroke="#060606" stroke-width="4" stroke-miterlimit="10"/>
<path fill-rule="evenodd" clip-rule="evenodd" d="M630.29 496.18H490.73L436.12 608.43H580.73L630.29 496.18Z" fill="white" stroke="#020201" stroke-width="5.51" stroke-miterlimit="10"/>
<path d="M327.31 609.37H446.64V591.17H327.31V609.37Z" fill="white" stroke="#020201" stroke-width="5.51" stroke-miterlimit="10"/>
<path d="M551.985 554.542C555.207 547.623 553.306 539.912 547.739 537.319C542.171 534.727 535.046 538.234 531.824 545.153C528.602 552.073 530.503 559.783 536.071 562.376C541.638 564.968 548.763 561.461 551.985 554.542Z" fill="#4C1D95" stroke="#020201" stroke-width="5.51" stroke-miterlimit="10"/>
<path d="M259.66 639.26H237.2V937.6H259.66V639.26Z" fill="white" stroke="#060606" stroke-width="4" stroke-miterlimit="10"/>
<path d="M524.84 639.26H507.73V944.01H524.84V639.26Z" fill="white" stroke="#060606" stroke-width="4" stroke-miterlimit="10"/>
<path d="M662.78 640.33H645.67V916.21H662.78V640.33Z" fill="white" stroke="#060606" stroke-width="4" stroke-miterlimit="10"/>
<path d="M764.37 642.47H744.05V939.74H764.37V642.47Z" fill="white" stroke="#060606" stroke-width="4" stroke-miterlimit="10"/>
<path d="M289.24 452.84C300.788 452.84 310.15 443.478 310.15 431.93C310.15 420.382 300.788 411.02 289.24 411.02C277.692 411.02 268.33 420.382 268.33 431.93C268.33 443.478 277.692 452.84 289.24 452.84Z" fill="#060606"/>
<path fill-rule="evenodd" clip-rule="evenodd" d="M285.91 417.67C285.91 417.67 275.46 367.77 320.6 360.67L336.29 361.62C336.29 361.62 298.19 370.9 298.47 422.82L285.91 417.67Z" fill="#060606"/>
<path d="M381.2 455.21C386.32 455.21 390.47 452.658 390.47 449.51C390.47 446.362 386.32 443.81 381.2 443.81C376.08 443.81 371.93 446.362 371.93 449.51C371.93 452.658 376.08 455.21 381.2 455.21Z" fill="#060606"/>
<path d="M363.85 392C363.85 392 406.15 424.79 385.71 449" stroke="#060606" stroke-width="3" stroke-miterlimit="10"/>
<path d="M495.97 76.45V335.93" stroke="#020201" stroke-width="5.51" stroke-miterlimit="10"/>
<path d="M494.54 375.85C512.649 375.85 527.33 361.169 527.33 343.06C527.33 324.951 512.649 310.27 494.54 310.27C476.431 310.27 461.75 324.951 461.75 343.06C461.75 361.169 476.431 375.85 494.54 375.85Z" fill="#4C1D95" stroke="#020201" stroke-width="5.51" stroke-miterlimit="10"/>
</svg>
