<svg width="963" height="1000" viewBox="0 0 963 1000" fill="none" xmlns="http://www.w3.org/2000/svg">
<path fill-rule="evenodd" clip-rule="evenodd" d="M370.76 647.46C372.908 646.957 375.104 646.688 377.31 646.66C384.88 646.21 392.6 649.82 400.02 651.44C403.27 652.24 406.71 653.19 410.19 653.89C413.28 654.31 416.47 654.62 419.68 654.82C422.27 654.9 425.29 654.7 426.17 657.42C431.01 658.536 436.017 658.732 440.93 658C440.376 656.414 440.29 654.703 440.68 653.07C440.44 652.66 440.11 652.12 439.93 651.75H440.53C449.25 648.27 458.68 645.88 467.45 642.27C478.9 638.15 495.75 630.2 508.98 624.76C508.062 619.911 507.776 614.963 508.13 610.04L507.6 609.61C507.447 608.567 507.129 607.554 506.66 606.61C506.03 604.96 506.02 602.7 505.77 600.83C505.26 597.18 504.91 591.68 505.85 587.34C506.26 581.46 510.23 576.92 514.52 573.34C519.77 568.14 525.04 563.08 530.17 557.69C558.58 528.77 560.83 492.35 605.3 481.29V481.11C605.65 480.72 605.79 480.41 606.19 481.03C607.66 480.47 609.49 480.52 610.72 479.57C612.846 477.655 614.476 475.253 615.47 472.57C616.25 467.42 615.69 459.48 620.21 456.19C625.21 453.19 651.89 451.05 654.21 457.61C655.574 459.004 656.457 460.798 656.73 462.73C658.22 465.54 659.15 468.65 660.65 471.5C663.83 477.89 665.89 476.5 671.51 477.93C672.12 476.57 673.97 476.85 675.32 477.04C691.66 479.34 711.57 485.59 718.56 500.92L717.97 500.84C730.04 523.49 722.21 552.29 720.05 576.29C718.425 597.31 720.112 618.454 725.05 638.95C730.88 660.06 731.21 683.67 719.65 702.77C718.48 704.96 717.05 708.05 714.52 706.68C712.986 707.793 711.255 708.607 709.42 709.08C708.844 709.608 708.232 710.095 707.59 710.54C707.22 710.377 706.86 710.193 706.51 709.99C704.62 712.68 600.86 721.68 590.09 723.08C580.6 724.22 568.09 727.14 560.34 720.3C553.95 718.48 547.26 713.74 542.16 709.03C539.06 753.89 537.34 845.76 534.58 846.4C533.37 846.81 531.74 847.3 530.37 847.7C530.37 850.92 530.12 854.58 530.37 857.75C530.8 861.33 531.87 865.55 532.37 869.31C534.46 869.18 535.08 871.31 535.32 872.69C537.12 884.45 537.07 893.92 536.94 906.84C515.71 919.32 490.83 926.19 466.94 934.26C464.65 935.97 459.69 934.12 457.05 933.65C447.88 931.85 437.45 926.52 439.77 916.74C441.46 909.38 448.58 905.14 454.57 900.81C461.13 896.07 468.04 891.33 474.07 885.68C478.582 881.623 482.755 877.205 486.55 872.47C488.33 870.09 490.24 866.16 492.65 864.4C490.11 861.4 495.24 864.22 497.19 864.4C498.32 859.092 499.742 853.851 501.45 848.7L499.8 848.78C494.37 843.72 491.34 819.46 490.96 812.26C488.24 765.33 488.31 711.26 499.21 671.72C490.93 676.81 481.85 681.06 473.61 686.1C468.42 689.1 463.15 693.35 457.33 694.82C457.262 695.08 457.12 695.316 456.923 695.499C456.725 695.681 456.479 695.803 456.214 695.851C455.949 695.898 455.676 695.869 455.427 695.766C455.178 695.663 454.964 695.491 454.81 695.27C453.81 695.4 452.42 694.97 452.31 694.49C451.24 692.32 449.7 689.97 449.89 687.61L451.31 684.3C448.11 685.6 444.63 688.3 441.21 688.58C434.31 711.58 420.7 698.71 407.61 689.75C399.71 684.24 391.06 678.15 382.75 672.27C375.69 666.67 361.92 661.35 368.67 650.27" fill="white"/>
<path fill-rule="evenodd" clip-rule="evenodd" d="M667.54 476.5C660.87 474.89 659.73 458.92 655.7 461.19C653.38 463.19 657.18 467.03 657.86 469.31L658.15 469.89C659.52 472.55 661.06 475.2 663.76 476.73C665.49 478.55 670.66 476.73 669.9 479.66C667.24 488.39 653.15 494.44 644.84 497.16C631.92 502 611.03 500.37 608 484.16C615.08 482.86 620.32 470.1 615.95 464.79C615.81 469.95 614.39 475.28 610.34 478.79L610.11 479C609.4 479.65 608.47 480.43 607.55 480.28C606.65 479.03 604.91 479.74 604.4 481.06C564.07 488.06 555.08 531.46 529.68 557.06C524.61 562.39 519.31 567.5 514.07 572.67C508.72 576.9 504.94 582.81 504.68 589.74C504.275 593.596 504.366 597.487 504.95 601.32V601.67C505.19 604.07 505.33 606.67 506.47 608.76C506.67 609.48 506.59 610.39 507.21 610.9C506.947 615.344 507.195 619.803 507.95 624.19L506 625.06C484.59 634.58 462.93 643.56 440.6 650.69C438.7 650.35 438.85 652.56 439.77 653.57C439.505 654.752 439.505 655.978 439.77 657.16C435.669 657.614 431.521 657.395 427.49 656.51C426.22 653.71 422.82 653.86 420.2 653.78C416.94 653.57 413.69 653.26 410.46 652.78C402.46 651.01 394.66 648.67 386.77 646.61C381.436 645.19 375.824 645.19 370.49 646.61C369.586 647.613 368.773 648.694 368.06 649.84C363.21 657.34 367.99 664.21 374.75 668.15C385.59 675.83 396.453 683.497 407.34 691.15L408.13 691.72C421.13 700.98 435.68 712.72 442.6 690.16C444.93 689.89 446.97 688.33 449.14 687.41C448.55 690.11 450.3 692.85 451.5 695.17C451.793 695.758 452.26 696.241 452.839 696.553C453.417 696.864 454.078 696.989 454.73 696.91C455.021 697.153 455.36 697.332 455.726 697.433C456.091 697.533 456.474 697.555 456.849 697.495C457.223 697.435 457.58 697.296 457.896 697.086C458.212 696.877 458.479 696.602 458.68 696.28C464.6 694.58 469.5 690.63 474.74 687.56C482.2 683.03 490.03 679.18 497.59 674.84C485.02 726.84 488.1 780.93 491.44 833.84V834.31C491.85 842.04 493.62 845.69 500.04 850.42C498.901 853.811 497.939 857.259 497.16 860.75C496.89 861.56 495.65 860.75 495.64 861.91C493.36 861.38 488.73 861.91 490.35 865.09C485.77 868.93 482.67 874.09 478.66 878.49C471.6 886.95 462.37 893.24 453.31 899.44C432.5 910.03 431.31 928.38 455.66 934.65H455.9C459.26 935.46 463.29 937.3 466.55 935.75C471.41 934.82 476.23 932.92 480.99 931.48C500.1 925.184 518.817 917.751 537.04 909.22C537.347 909.051 537.603 908.802 537.779 908.499C537.955 908.196 538.045 907.85 538.04 907.5C537.84 901.65 539.43 869.63 533.36 868.94C532.119 862.35 531.676 855.635 532.04 848.94C534.007 848.291 536.011 847.757 538.04 847.34C540.04 846.72 543.11 846.58 544.44 844.98C544.698 844.895 544.916 844.719 545.054 844.486C545.191 844.252 545.24 843.977 545.19 843.71C544.117 833.67 543.293 823.61 542.72 813.53C540.72 779.74 541.38 745.85 543.72 712.09C548.428 716.365 553.952 719.644 559.96 721.73C563.3 725.07 568.65 725.79 573.21 726.19C579.07 726.55 584.82 725.39 590.61 724.66C600.43 723.42 610.18 724.52 619.92 725.73L623.25 726.14C647.12 728.76 672.91 729.3 695.15 719.14C699.34 719.51 704.53 714.99 707.15 711.97C708.3 712.68 709.43 711.3 710.35 710.56C711.986 710.105 713.544 709.403 714.97 708.48C718.46 709.62 720.34 705.09 721.67 702.63C742.73 666.63 719.28 630.78 721.04 592.63C719.97 562.7 733.65 531.51 720.43 502.81C717.76 490.66 702.12 482.26 690.35 479.17C686.56 478.55 672.2 473.36 670.62 477.72C669.93 476.58 668.68 476.51 667.54 476.5ZM492.87 866.33C494.87 866.54 496.77 866.66 498.72 867.02C505.834 868.249 512.632 870.88 518.72 874.76C520.72 875.99 522.47 877.55 524.72 878.23C529.39 879.93 533.99 875.72 533.64 871.17C534.95 882.6 534.72 894.36 534.05 905.85C515.77 914.103 497.103 921.437 478.05 927.85C473.77 929.64 468.7 930.21 464.76 932.64C457.951 932.144 451.381 929.921 445.67 926.18C436.32 919.71 442.52 909.44 450.27 904.92C467.39 897.24 481.93 881.69 492.87 866.33ZM530.24 849.43C530.6 852.81 528.02 858.09 528.39 864.84C528.67 866.95 529.33 869.16 529.1 871.28C528.05 879.13 519.53 869.15 516.01 868.06C511.013 865.335 505.611 863.43 500.01 862.42C500.01 860.61 501.25 859.89 501.41 858.1C501.63 855.47 501.62 852.93 501.74 850.27C509 853.57 522.55 851.24 530.24 849.43ZM491.15 865.81C491.275 865.897 491.41 865.971 491.55 866.03C490.625 867.319 489.594 868.53 488.47 869.65L488.98 868.87C489.64 867.807 490.365 866.785 491.15 865.81ZM716.49 584.91C716.838 586.398 717.522 587.787 718.49 588.97C713.34 630.67 739.84 665.43 715.49 704.2C715.182 704.347 714.893 704.532 714.63 704.75L714.21 704.45C702.79 684.28 686.53 666.87 673.58 647.56C671.09 642.72 667 637.84 665.43 632.24C691.47 622 701.87 607 716.49 584.91ZM373.93 648.16C375.091 648.37 376.279 648.37 377.44 648.16C381.62 648.08 385.71 649.16 389.71 650.27C401.297 653.548 413.054 656.189 424.93 658.18C425.17 658.425 425.397 658.682 425.61 658.95C425.5 659.137 425.446 659.352 425.457 659.569C425.468 659.786 425.542 659.995 425.67 660.17C427.47 663.6 426.02 667.79 427.33 671.46C429.22 678.9 434.25 687.28 441.76 689.91C439.26 692.3 437.46 695.37 434.88 697.67C428.54 702.01 421.55 695.54 416.38 692.07C406.52 685.11 396.633 678.197 386.72 671.33C382.28 667.66 372.46 663.03 370.34 658.16C369 654.43 371.48 650.79 373.93 648.16ZM441.87 657.63C446.12 666.27 448.57 675.46 451.02 684.74C448.47 685.44 446.12 686.53 443.61 687.27C440.09 688.06 435.1 681.27 433.33 678.55C431.496 675.536 430.245 672.205 429.64 668.73C429.14 665.32 429.64 661.73 428.19 658.63C432.8 659.09 437.46 659.19 441.88 657.63H441.87ZM694.15 639.8C690.15 638.69 699.23 647.69 699.76 648.65C705.65 655.65 711.05 662.94 716.41 670.3L718.03 672.53C718.19 672.76 719.27 674.35 718.49 674.15C718.475 674.143 718.459 674.143 718.444 674.148C718.429 674.154 718.417 674.165 718.41 674.18C718.403 674.195 718.403 674.211 718.408 674.226C718.414 674.241 718.425 674.253 718.44 674.26C723.4 675.14 696.54 640.41 694.15 639.8ZM597.01 635.55C596.69 634.55 598.22 634.17 598.54 635.13L599.54 638.19C603.38 649.73 607.19 661.29 611.77 672.56C612.15 673.5 610.62 673.92 610.24 672.98C605.27 660.71 601.19 648.11 597.01 635.55ZM552.45 631.55C553.85 638.17 557.38 644.14 559.52 650.47C555.52 649.59 552.4 645.85 550.06 642.63L549.99 642.52C548.88 640.82 547.6 638.17 545.09 639.37C541.28 641.58 544.01 649.37 544.09 653.13C544.57 658.23 546.23 662.99 547.36 667.94C544.45 665.94 543.62 662.05 542.2 659L536.75 645.95C532.75 640.47 534.61 656.88 534.81 658.43C535.14 661.83 536.58 665.26 536.01 668.68C533.854 666.159 532.198 663.251 531.13 660.11C529.48 655.8 527.96 651.44 526.38 647.11C526.28 646.823 526.075 646.584 525.806 646.443C525.537 646.301 525.224 646.267 524.931 646.347C524.638 646.427 524.385 646.615 524.226 646.874C524.066 647.132 524.01 647.442 524.07 647.74C524.17 652.66 524.257 657.577 524.33 662.49L524.39 666.18C524.39 666.88 524.75 668.92 523.54 668.36C517.18 661.7 515.54 648.36 516.38 639.44C528.86 639.7 541.6 638.09 552.45 631.51V631.55ZM441.32 656.39C441.38 656.55 441.43 656.72 441.49 656.88H441.38L441.32 656.39ZM718.48 656.39C719.86 655.39 696.58 625.52 698.09 634.14C704.58 641.77 712.16 648.5 718.48 656.35V656.39ZM512.86 590.39C534.64 585.28 553.81 604.39 575.68 601.48C575.42 608.32 575.07 615.2 575.21 622.03C546.21 624.42 549.48 636.76 516.05 635.52C511.73 632.63 509.95 614.93 510.32 609.58C510.04 603.26 515.49 600.43 520.91 599.32C522.91 600.5 526.39 596.97 523.48 595.73C519.656 594.581 516.063 592.774 512.86 590.39ZM673.49 478.39C681.289 479.177 688.904 481.245 696.03 484.51C722.35 492.1 726.14 522.86 722.98 546.17C721.67 563.9 716.6 581.24 705.98 595.66C677.64 638.81 630.7 631.98 586.25 626.27C584.64 625.16 581.93 625.95 580.38 624.48C580.533 624.424 580.678 624.346 580.81 624.25C580.009 623.569 579.483 622.62 579.33 621.58H579.01C578.69 614.89 578.94 608.33 578.84 601.69C593.45 597.69 609.12 595.64 623.92 591.69C625.61 592.86 627.55 591.51 629.19 590.87C633.45 589.057 637.747 587.337 642.08 585.71L643.17 585.3C645.99 584.24 648.81 583.16 651.61 582.03L652.61 581.6C654.22 580.95 658.26 578.53 660.01 580.04L659.87 580.34C658.87 582.6 655.26 590.95 659.65 589.34C663.22 586.84 665.06 569.42 668.59 569.26C669.87 572.47 670.659 575.855 670.93 579.3C671 580.08 672.02 580.74 672.64 580.01C676.83 574.51 670.5 568.51 670.33 562.7C669.94 555.94 672.93 549.62 674.42 543.15L674.51 542.71C675.39 538.51 676.75 533.42 676.39 529.66L675.52 532.93C674.65 536.19 673.75 539.46 672.73 542.69C670.19 550.69 665.6 559.03 668.15 567.64C663.03 567.81 662.15 575.87 660.25 579.56C657.14 575.56 635.25 585.19 630.25 586.74L629.25 585.65C613.64 567.94 602.36 556 578.12 570C582.31 556.51 582.71 542.19 583.43 528.18C583.18 525.52 584.72 518.49 582.55 517.04C582.173 517.091 581.805 517.199 581.46 517.36V518.74C581.46 521.41 581.32 525.84 580.2 526.85L579.69 532.15C578.34 545.91 576.81 559.67 572.69 572.94C562.886 578.58 553.708 585.244 545.31 592.82L544.31 592.47C533.83 588.63 521.22 583.72 510.5 588.47C510.745 585.765 511.666 583.165 513.18 580.91C515.61 580.3 517.18 577.75 518.93 576.04C524.44 570.14 530.1 564.36 535.48 558.33C558.48 533.66 568.21 493.15 604.27 483.58C606.66 503.52 632.2 506.7 647.59 499.87L648.17 499.65C657.74 495.96 668.55 490.4 671.91 480.26L672.05 479.97C672.42 479.25 672.84 478.52 673.49 478.39ZM667.82 591.83C667.82 591.83 667.73 591.83 667.76 591.83C672.24 597.45 675.89 605.11 671.43 611.83C671.263 612.143 671.211 612.505 671.286 612.851C671.36 613.198 671.554 613.507 671.835 613.724C672.115 613.941 672.463 614.052 672.818 614.037C673.172 614.021 673.509 613.881 673.77 613.64C679.93 606.67 673.09 597.16 667.82 591.83ZM511.82 593.1C514.279 594.857 516.933 596.324 519.73 597.47C519.745 597.797 519.845 598.114 520.02 598.39C516.33 598.69 512.49 599.64 509.91 602.32C509.78 601.32 509.66 600.32 509.56 599.32C509.32 596.84 509.76 594.57 511.82 593.1ZM681.36 568.26V568.13C681.36 567.97 681.1 567.96 681.11 568.13C681.2 570.13 682.66 571.57 683.9 573L689.42 579.36C692.49 583.06 697.03 586.77 696.01 592.13C696.018 592.518 696.151 592.893 696.39 593.2C696.629 593.506 696.961 593.726 697.335 593.829C697.71 593.931 698.107 593.91 698.469 593.767C698.83 593.625 699.136 593.37 699.34 593.04C703.19 585.7 691.07 579.46 686.98 574.73C685.07 572.68 682.04 571.17 681.38 568.26H681.36ZM623.64 590.26C623.581 590.348 623.541 590.446 623.52 590.55L621.59 590.77L623.59 590.26H623.64ZM720.07 573.1C719.96 573.87 719.85 574.63 719.75 575.4L719.65 576.17V576.11C719.602 575.916 719.506 575.737 719.37 575.59C719.57 574.77 719.83 574 720.07 573.13V573.1ZM543.07 565.17C541.52 565 548.52 570.03 548.91 570.65C548.963 570.691 549.024 570.721 549.089 570.738C549.153 570.755 549.221 570.759 549.287 570.751C549.354 570.742 549.418 570.72 549.476 570.686C549.533 570.653 549.584 570.608 549.625 570.555C549.666 570.502 549.696 570.441 549.713 570.376C549.73 570.312 549.734 570.244 549.726 570.178C549.717 570.111 549.695 570.047 549.661 569.989C549.628 569.931 549.583 569.881 549.53 569.84C547.36 568.34 545.21 566.77 543.07 565.2V565.17ZM556.69 550.38C555.61 549.94 554.88 551.73 555.9 552.23C559.62 554.04 563.54 555.32 566.97 557.71C567.12 557.82 567.3 557.57 567.16 557.46L566.75 557.13C563.6 554.66 560.45 552 556.69 550.41V550.38ZM718.79 527.78C717.79 532.66 712.14 534.26 707.79 535.56L706.43 536.08C702.58 537.55 698.59 539.21 695.82 542.31C694.74 545.82 702.48 539.71 703.56 539.4C708.84 536.16 718.4 535.6 718.79 527.81V527.78ZM604.15 482.2C604.15 482.44 604.1 482.7 604.09 482.95H603.09C603.471 482.754 603.827 482.512 604.15 482.23V482.2Z" fill="#060606"/>
<path fill-rule="evenodd" clip-rule="evenodd" d="M622.23 474.11C627.183 474.258 632.054 472.817 636.13 470C640.64 468.39 646.07 465.92 649.37 463.32C650.66 463.65 652.2 462.32 653.18 461.57C659.31 457 664.12 450.31 665.54 443.62C667.74 446.39 670.87 446.5 673.87 445.13C680.15 441.57 679.92 434.07 677.65 428.48C682.41 417.82 685.71 389.69 678.45 378.34C676.96 376.64 674.78 375.62 673.21 373.88C671.902 372.315 670.446 370.882 668.86 369.6C663.91 365.83 655.37 363.82 650.03 362.88C627.71 358.06 610.57 366.72 590.36 374.03C591.543 376.885 593.093 379.575 594.97 382.03C589.97 383.9 592.26 388.1 596.15 390.24L598.47 389.11C594.86 402.02 586.54 434.11 590.13 444.42C592.99 460.5 605.55 474.25 622.23 474.13" fill="white"/>
<path fill-rule="evenodd" clip-rule="evenodd" d="M619 475.5C626.23 476.24 634.82 474.5 639.63 468.67C639.761 468.508 639.838 468.308 639.85 468.1C639.851 467.89 639.78 467.685 639.65 467.52C639.523 467.352 639.337 467.238 639.13 467.2C638.925 467.17 638.715 467.205 638.53 467.3L638.09 467.55C634.854 469.448 631.326 470.8 627.65 471.55C622.372 472.51 616.931 471.973 611.943 469.999C606.956 468.025 602.621 464.692 599.43 460.38C594.815 454.279 592.015 447.001 591.35 439.38C590.5 430.28 592.48 421.23 594.53 412.38C596.68 403.11 599.04 393.9 601.78 384.78C601.854 384.534 601.881 384.276 601.86 384.02C602.68 383.735 603.575 383.756 604.38 384.08C605.982 384.746 607.473 385.653 608.8 386.77C609.27 387.13 609.7 387.46 610.1 387.77C611.661 388.91 613.504 389.601 615.43 389.77C617.474 389.801 619.498 389.356 621.34 388.47C622.29 388.07 623.21 387.65 624.14 387.23C626.744 385.97 629.447 384.924 632.22 384.1C636.034 383.075 639.971 382.574 643.92 382.61C650.92 382.67 658.03 384.49 662.35 390.44C664.09 392.85 665.24 395.62 664.35 398.59C663.81 400.196 662.998 401.698 661.95 403.03L661.61 403.49C661.055 404.148 660.659 404.925 660.45 405.76C660.373 406.146 660.375 406.544 660.458 406.93C660.54 407.315 660.701 407.679 660.93 408C661.226 408.461 661.561 408.895 661.93 409.3C662.21 409.603 662.474 409.92 662.72 410.25C663.194 410.924 663.6 411.645 663.93 412.4C664.55 413.881 664.89 415.465 664.93 417.07C664.935 418.987 664.775 420.901 664.45 422.79C664.26 424.13 664.07 425.47 663.99 426.79C663.976 426.987 664.032 427.182 664.15 427.34C664.28 427.5 664.466 427.604 664.67 427.63H664.86C664.86 427.76 664.8 427.89 664.78 428.03C664.91 427.86 665.05 427.7 665.19 427.54C665.345 427.456 665.471 427.327 665.55 427.17C665.76 426.98 665.98 426.8 666.21 426.62C667.362 425.737 668.76 425.234 670.21 425.18C671.603 425.146 672.955 425.655 673.98 426.6C676.06 428.54 676.67 431.7 676.69 434.41C676.71 437.12 676.07 440.51 673.69 442.23C672.711 442.931 671.544 443.321 670.34 443.35C669.352 443.296 668.38 443.07 667.47 442.68L666.61 442.38C666.327 442.281 666.019 442.274 665.732 442.36C665.445 442.446 665.192 442.621 665.01 442.86C664.824 443.107 664.707 443.4 664.67 443.707C664.633 444.014 664.678 444.326 664.8 444.61L664.9 444.82L664.37 445.7C662.433 449.091 660.143 452.269 657.54 455.18C656.004 456.838 654.332 458.363 652.54 459.74L652.27 459.94L651.76 460.34C651.282 460.836 650.671 461.183 650 461.34C649.844 461.351 649.687 461.351 649.53 461.34C649.234 461.275 648.926 461.292 648.64 461.39C648.36 461.515 648.123 461.719 647.956 461.976C647.789 462.233 647.7 462.533 647.7 462.84C647.696 463.139 647.776 463.434 647.93 463.69C648.176 464.132 648.558 464.483 649.02 464.69C649.481 464.884 649.992 464.929 650.48 464.82C651.808 464.414 653.034 463.733 654.08 462.82L654.25 462.68C656.26 461.177 658.115 459.479 659.79 457.61C662.755 454.413 665.026 450.637 666.46 446.52C667.439 447.119 668.562 447.44 669.71 447.45C671.401 447.495 673.081 447.153 674.62 446.45C676.023 445.743 677.254 444.737 678.226 443.504C679.199 442.27 679.89 440.839 680.25 439.31C681.177 435.723 680.974 431.938 679.67 428.47L679.55 428.19C683.39 418.49 684.55 407.73 684.24 397.38C684.188 392.454 683.642 387.547 682.61 382.73C682.134 380.602 681.165 378.615 679.78 376.93C678.945 376.016 678.005 375.204 676.98 374.51C676.09 373.9 675.263 373.203 674.51 372.43L674.16 372.05L673.94 371.81C672.739 370.387 671.399 369.087 669.94 367.93C668.155 366.626 666.217 365.545 664.17 364.71C659.721 362.945 655.094 361.664 650.37 360.89C640.284 358.877 629.879 359.102 619.89 361.55C615.24 362.77 610.73 364.43 606.23 366.09L604.98 366.55L594.48 370.39L589.6 372.18C589.229 372.325 588.915 372.588 588.71 372.93C588.609 373.099 588.549 373.289 588.533 373.484C588.518 373.68 588.547 373.877 588.62 374.06C589.601 376.565 590.87 378.948 592.4 381.16C591.862 381.528 591.412 382.009 591.08 382.57C590.629 383.308 590.383 384.155 590.37 385.02C590.31 388.02 593.04 390.02 595.3 391.51C595.49 391.639 595.705 391.727 595.93 391.77C593.73 400.14 591.63 408.55 589.85 417.02L589.72 417.61C587.89 426.48 586.72 435.53 588.44 444.51C589.859 452.352 593.468 459.633 598.85 465.51C604.152 471.148 611.303 474.693 619 475.5ZM666.59 424.5C667.598 421.51 667.969 418.342 667.68 415.2C667.456 413.291 666.865 411.444 665.94 409.76C665.393 408.8 664.753 407.895 664.03 407.06L663.79 406.78C663.659 406.659 663.559 406.508 663.5 406.34C663.482 406.226 663.503 406.11 663.56 406.01C663.722 405.714 663.924 405.441 664.16 405.2C664.3 405.03 664.44 404.87 664.56 404.71C666.63 401.9 668.18 398.56 667.68 395.01C667.18 391.46 664.91 388.31 662.49 385.87C657.15 380.51 648.88 379.27 641.63 379.57C637.399 379.738 633.211 380.482 629.18 381.78C627.199 382.424 625.262 383.196 623.38 384.09L622.96 384.29L622.29 384.62C620.844 385.396 619.319 386.013 617.74 386.46C614.62 387.23 612.51 385.62 610.28 383.99C609.52 383.43 608.75 382.87 607.93 382.37L607.76 382.27C606.245 381.372 604.521 380.886 602.76 380.86C601.247 380.855 599.79 381.431 598.69 382.47C598.476 382.666 598.323 382.919 598.25 383.2C598.113 383.397 598.011 383.617 597.95 383.85C597.53 385.41 597.12 386.98 596.7 388.54L596.37 388.32C595.29 387.755 594.392 386.895 593.78 385.84C593.593 385.307 593.621 384.722 593.86 384.21C593.934 384.037 594.055 383.887 594.21 383.78C594.324 383.7 594.462 383.665 594.6 383.68C594.939 383.728 595.285 383.683 595.6 383.55C595.925 383.416 596.2 383.185 596.39 382.89C596.577 382.593 596.652 382.238 596.6 381.89C596.559 381.547 596.412 381.226 596.18 380.97C594.465 379.019 593.037 376.834 591.94 374.48L599.17 371.81L606.93 369L608.34 368.48C613.001 366.672 617.774 365.169 622.63 363.98C632.33 361.78 642.45 362.29 652.12 364.36L652.7 364.49C656.809 365.263 660.806 366.543 664.6 368.3C666.444 369.187 668.149 370.34 669.66 371.72C670.32 372.34 670.91 373.02 671.51 373.72C672.321 374.692 673.214 375.592 674.18 376.41L675.1 377.15C676.531 378.147 677.693 379.484 678.48 381.04C679.231 382.862 679.739 384.775 679.99 386.73C680.765 391.591 681.126 396.508 681.07 401.43C680.875 409.633 679.907 417.799 678.18 425.82C677.587 424.886 676.803 424.088 675.879 423.48C674.955 422.871 673.912 422.466 672.82 422.29C671.357 422.104 669.872 422.365 668.56 423.04C667.81 423.422 667.133 423.933 666.56 424.55L666.59 424.5ZM669 434.3C670.649 433.64 672.449 433.45 674.2 433.75C674.377 433.78 674.558 433.745 674.71 433.65C674.865 433.568 674.985 433.433 675.05 433.27C675.119 433.1 675.119 432.91 675.05 432.74C674.985 432.568 674.856 432.429 674.69 432.35C672.772 431.42 670.623 431.072 668.51 431.35H668.31C667.001 431.512 665.732 431.905 664.56 432.51C664.128 432.721 663.75 433.027 663.452 433.404C663.154 433.782 662.945 434.221 662.84 434.69C662.8 434.928 662.807 435.172 662.862 435.407C662.917 435.642 663.018 435.864 663.16 436.06C663.301 436.251 663.487 436.404 663.702 436.506C663.916 436.607 664.153 436.653 664.39 436.64C665.213 436.596 665.993 436.259 666.59 435.69L666.85 435.5C667.505 434.996 668.229 434.589 669 434.29V434.3Z" fill="#060606"/>
<path fill-rule="evenodd" clip-rule="evenodd" d="M631.02 439.81C626.72 439.29 622.56 440.6 618.35 441.26C616.138 441.621 613.908 441.858 611.67 441.97H610.31C610.293 441.751 610.215 441.54 610.084 441.363C609.953 441.187 609.775 441.05 609.57 440.97C608.681 440.527 607.693 440.317 606.7 440.36C605.694 440.4 604.692 440.507 603.7 440.68C601.884 440.967 600.193 441.785 598.84 443.03C595.84 446.03 596.29 450.77 598.61 454.03C603.41 460.71 612.18 461.03 619.69 460.93H620.38C627.21 460.84 636.99 461.85 640.1 454.09C640.662 452.659 640.915 451.126 640.842 449.59C640.77 448.055 640.374 446.552 639.68 445.18C638.05 441.94 634.54 440.23 631.02 439.81ZM609.67 450.93H609.73C612.877 451.05 616.03 451.14 619.19 451.2C619.09 452 619 452.81 618.89 453.62C618.8 454.25 618.71 454.89 618.61 455.52C618.518 455.846 618.468 456.182 618.46 456.52V456.63C618.289 456.708 618.143 456.833 618.04 456.99C618.002 457.046 617.972 457.106 617.95 457.17C615.414 457.242 612.877 457.084 610.37 456.7V456.64C610.348 456.376 610.222 456.131 610.02 455.96C609.889 454.931 609.812 453.897 609.79 452.86C609.76 452.18 609.71 451.56 609.67 450.93ZM621.59 451.24C623.87 451.24 626.14 451.31 628.41 451.24H629.41C629.19 452.41 628.96 453.57 628.76 454.75C628.719 455.006 628.736 455.267 628.81 455.515C628.884 455.763 629.012 455.992 629.186 456.184C629.359 456.376 629.574 456.526 629.813 456.624C630.053 456.722 630.312 456.765 630.57 456.75L630.25 456.8C627.294 457.105 624.32 457.206 621.35 457.1C621.454 456.184 621.49 455.261 621.46 454.34V454.22C621.54 453.22 621.58 452.23 621.59 451.24ZM637.02 451C636.948 451.605 636.794 452.197 636.56 452.76C635.56 455.09 633.37 456.18 631.02 456.64C631.244 456.562 631.44 456.42 631.584 456.232C631.728 456.043 631.814 455.817 631.83 455.58C632.028 454.135 632.122 452.678 632.11 451.22C633.75 451.22 635.4 451.19 637.02 451ZM601.12 450.51C602.335 450.681 603.563 450.748 604.79 450.71L608.01 450.84C607.96 451.57 607.91 452.3 607.85 453.03C607.822 453.997 607.738 454.962 607.6 455.92C605.412 455.235 603.48 453.912 602.05 452.12C601.677 451.629 601.365 451.095 601.12 450.53V450.51ZM631.51 443.62C632.485 443.789 633.413 444.162 634.235 444.713C635.057 445.264 635.754 445.982 636.28 446.82C636.864 447.905 637.141 449.129 637.08 450.36C635.44 450.17 633.77 450.09 632.08 450.03C632.08 449.73 632.08 449.44 632.08 449.14V448.37C632.1 446.775 631.909 445.184 631.51 443.64V443.62ZM621.46 443.8L622.31 443.7C624.67 443.356 627.056 443.225 629.44 443.31C629.78 443.31 630.13 443.37 630.44 443.42C630.136 445.001 629.949 446.602 629.88 448.21C629.81 448.79 629.73 449.36 629.63 449.93H629.22C626.67 449.79 624.12 449.7 621.57 449.6C621.57 449.12 621.57 448.6 621.57 448.17V447.69C621.607 446.399 621.57 445.107 621.46 443.82V443.8ZM609.53 443.6C612.013 443.961 614.521 444.124 617.03 444.09C618.03 444.09 618.98 444.03 619.96 443.95C619.9 444.47 619.86 444.95 619.82 445.5C619.72 446.5 619.61 447.57 619.49 448.6L619.38 449.5C616.25 449.36 613.11 449.2 609.98 449.04H609.53L609.41 447.31C609.33 446.15 609.23 445 609.1 443.85H609.2C609.321 443.79 609.432 443.713 609.53 443.62V443.6ZM608.45 444.03C608.31 445.67 608.24 447.31 608.14 448.94L606.07 448.83L605.07 448.78C603.73 448.7 602.01 448.29 600.68 448.67C600.601 448.07 600.683 447.459 600.917 446.901C601.15 446.342 601.527 445.856 602.01 445.49C603.93 444.09 606.32 444.6 608.45 444.05V444.03ZM615.51 429.43C612.43 427.67 604.71 425.87 604.22 431.43C604 433.97 605.89 436.08 608.1 437.02H608.19C610.26 437.87 613.94 438.83 615.74 437.02C617.23 435.49 615.25 432.73 613.39 434.02C612.44 434.67 610.39 434.19 609.39 433.88H609.33C608.18 433.54 606.65 432.46 607.12 431.05C607.54 429.8 609.33 429.57 610.45 429.53C612.124 429.587 613.794 429.741 615.45 429.99C615.522 429.998 615.593 429.977 615.65 429.932C615.706 429.887 615.742 429.822 615.75 429.75C615.758 429.678 615.737 429.607 615.692 429.55C615.647 429.494 615.582 429.458 615.51 429.45V429.43ZM602.76 420.53C598.59 420.34 595.99 424.89 596.95 428.62C597.044 428.967 597.25 429.273 597.536 429.492C597.821 429.711 598.17 429.829 598.53 429.83H598.71H598.97C599.314 429.732 599.618 429.525 599.834 429.24C600.05 428.956 600.168 428.608 600.17 428.25V428C600.07 426.24 600.26 424.21 602.36 423.78C604.14 423.42 605.13 425.13 605.16 426.7C605.161 426.765 605.178 426.829 605.211 426.886C605.244 426.942 605.291 426.99 605.347 427.023C605.403 427.056 605.467 427.074 605.533 427.075C605.598 427.077 605.662 427.061 605.72 427.03C606.288 426.628 606.698 426.041 606.88 425.369C607.062 424.698 607.006 423.984 606.72 423.35C606.415 422.541 605.875 421.843 605.169 421.344C604.463 420.845 603.624 420.568 602.76 420.55V420.53ZM633.76 421.53C632.281 421.099 630.699 421.192 629.28 421.791C627.862 422.39 626.693 423.46 625.97 424.82C625.692 424.857 625.436 424.994 625.252 425.206C625.068 425.417 624.968 425.689 624.97 425.97C624.995 426.748 625.3 427.49 625.83 428.06C626.061 428.285 626.346 428.447 626.657 428.531C626.968 428.616 627.295 428.62 627.609 428.543C627.922 428.466 628.21 428.31 628.446 428.091C628.683 427.872 628.86 427.596 628.96 427.29V427.24C629.069 426.835 629.258 426.457 629.517 426.127C629.775 425.798 630.098 425.523 630.464 425.321C630.831 425.118 631.235 424.992 631.652 424.949C632.068 424.905 632.49 424.947 632.89 425.07C634.83 425.75 634.77 427.79 636.13 428.98C636.2 429.049 636.291 429.093 636.388 429.106C636.486 429.119 636.585 429.099 636.67 429.05C638.12 428.36 637.86 426.26 637.34 425.05C637.017 424.249 636.532 423.523 635.916 422.917C635.301 422.312 634.566 421.839 633.76 421.53ZM637.93 412.31C635.46 409.8 629.04 407.38 627.36 412.01C627.234 412.479 627.297 412.979 627.537 413.402C627.776 413.825 628.173 414.137 628.64 414.27C630.15 414.57 631.48 413.91 632.98 414.03C634.226 414.108 635.423 414.542 636.43 415.28C639.11 417.35 639.7 420.87 641.57 423.51C641.587 423.539 641.613 423.562 641.644 423.574C641.675 423.587 641.709 423.589 641.741 423.58C641.774 423.57 641.802 423.551 641.821 423.524C641.841 423.496 641.851 423.463 641.85 423.43C642.004 421.406 641.735 419.372 641.06 417.458C640.385 415.543 639.319 413.79 637.93 412.31ZM605.81 409.84C604.143 409.3 602.347 409.3 600.68 409.84C599.01 410.362 597.509 411.318 596.33 412.61C595.792 413.19 595.32 413.827 594.92 414.51C594.71 414.87 594.49 415.62 594.25 416.06C593.926 416.217 593.644 416.448 593.426 416.734C593.207 417.02 593.058 417.353 592.991 417.707C592.924 418.06 592.941 418.425 593.04 418.771C593.138 419.117 593.317 419.435 593.56 419.7L593.62 419.75L593.77 419.91C594.079 420.217 594.464 420.438 594.885 420.548C595.307 420.659 595.75 420.656 596.17 420.54C598.06 419.99 598.29 418.54 598.95 416.93C599.392 415.878 600.106 414.963 601.02 414.28C602.206 413.483 603.548 412.949 604.958 412.714C606.367 412.48 607.81 412.55 609.19 412.92C609.32 412.92 609.48 412.79 609.39 412.66C608.984 412.041 608.492 411.482 607.93 411C607.282 410.497 606.556 410.105 605.78 409.84H605.81Z" fill="#060606"/>
<path d="M731.61 640.75L182.52 640.75V610.39L731.61 610.39V640.75Z" fill="white" stroke="#060606" stroke-width="4" stroke-miterlimit="10"/>
<path d="M731.61 640.75H355.75V611.1H731.61V640.75Z" fill="white" stroke="#060606" stroke-width="4" stroke-miterlimit="10"/>
<path fill-rule="evenodd" clip-rule="evenodd" d="M332.64 496.18H472.2L526.81 608.43H382.2L332.64 496.18Z" fill="white" stroke="#020201" stroke-width="5.51" stroke-miterlimit="10"/>
<path d="M635.62 609.37H516.29V591.17H635.62V609.37Z" fill="white" stroke="#020201" stroke-width="5.51" stroke-miterlimit="10"/>
<path d="M410.945 554.542C407.723 547.623 409.624 539.912 415.191 537.319C420.759 534.727 427.884 538.234 431.106 545.153C434.328 552.073 432.427 559.783 426.859 562.376C421.292 564.968 414.167 561.461 410.945 554.542Z" fill="#4C1D95" stroke="#020201" stroke-width="5.51" stroke-miterlimit="10"/>
<path d="M703.27 639.26H725.73V937.6H703.27V639.26Z" fill="white" stroke="#060606" stroke-width="4" stroke-miterlimit="10"/>
<path d="M438.09 639.26H455.2V944.01H438.09V639.26Z" fill="white" stroke="#060606" stroke-width="4" stroke-miterlimit="10"/>
<path d="M300.15 640.33H317.26V916.21H300.15V640.33Z" fill="white" stroke="#060606" stroke-width="4" stroke-miterlimit="10"/>
<path d="M198.56 642.47H218.88V939.74H198.56V642.47Z" fill="white" stroke="#060606" stroke-width="4" stroke-miterlimit="10"/>
<path d="M673.69 452.84C662.142 452.84 652.78 443.478 652.78 431.93C652.78 420.382 662.142 411.02 673.69 411.02C685.238 411.02 694.6 420.382 694.6 431.93C694.6 443.478 685.238 452.84 673.69 452.84Z" fill="#060606"/>
<path fill-rule="evenodd" clip-rule="evenodd" d="M677.02 417.67C677.02 417.67 687.47 367.77 642.33 360.67L626.64 361.62C626.64 361.62 664.74 370.9 664.46 422.82L677.02 417.67Z" fill="#060606"/>
<path d="M581.73 455.21C576.61 455.21 572.46 452.658 572.46 449.51C572.46 446.362 576.61 443.81 581.73 443.81C586.85 443.81 591 446.362 591 449.51C591 452.658 586.85 455.21 581.73 455.21Z" fill="#060606"/>
<path d="M599.08 392C599.08 392 556.78 424.79 577.22 449" stroke="#060606" stroke-width="3" stroke-miterlimit="10"/>
<path d="M466.96 76.45V335.93" stroke="#020201" stroke-width="5.51" stroke-miterlimit="10"/>
<path d="M468.39 375.85C450.281 375.85 435.6 361.169 435.6 343.06C435.6 324.951 450.281 310.27 468.39 310.27C486.499 310.27 501.18 324.951 501.18 343.06C501.18 361.169 486.499 375.85 468.39 375.85Z" fill="#4C1D95" stroke="#020201" stroke-width="5.51" stroke-miterlimit="10"/>
</svg>
